<svg width="494" height="529" viewBox="0 0 494 529" fill="none" xmlns="http://www.w3.org/2000/svg">
<path d="M419.831 40.3198C424.751 40.3198 428.951 40.6798 432.431 41.3998C436.031 42.1198 438.551 42.7798 439.991 43.3798L436.931 57.7798C435.491 57.0598 433.451 56.3998 430.811 55.7998C428.171 55.0798 424.931 54.7198 421.091 54.7198C413.291 54.7198 407.831 56.8798 404.711 61.1998C401.591 65.3998 400.031 71.0998 400.031 78.2998V86.3998H436.031V100.44H400.031V180H383.291V77.9398C383.291 65.9398 386.231 56.6998 392.111 50.2198C397.991 43.6198 407.231 40.3198 419.831 40.3198Z" fill="black"/>
<path d="M340.298 182.16C332.738 182.16 326.078 180.96 320.318 178.56C314.678 176.16 309.878 172.8 305.918 168.48C302.078 164.16 299.198 159.06 297.278 153.18C295.358 147.18 294.398 140.58 294.398 133.38C294.398 126.18 295.418 119.58 297.458 113.58C299.618 107.58 302.618 102.42 306.458 98.1001C310.298 93.6601 314.978 90.2401 320.498 87.8401C326.138 85.3201 332.378 84.0601 339.218 84.0601C343.418 84.0601 347.618 84.4201 351.818 85.1401C356.018 85.8601 360.038 87.0001 363.878 88.5601L360.098 102.78C357.578 101.58 354.638 100.62 351.278 99.9001C348.038 99.1801 344.558 98.8201 340.838 98.8201C331.478 98.8201 324.278 101.76 319.238 107.64C314.318 113.52 311.858 122.1 311.858 133.38C311.858 138.42 312.398 143.04 313.478 147.24C314.678 151.44 316.478 155.04 318.878 158.04C321.398 161.04 324.578 163.38 328.418 165.06C332.258 166.62 336.938 167.4 342.458 167.4C346.898 167.4 350.918 166.98 354.518 166.14C358.118 165.3 360.938 164.4 362.978 163.44L365.318 177.48C364.358 178.08 362.978 178.68 361.178 179.28C359.378 179.76 357.338 180.18 355.058 180.54C352.778 181.02 350.318 181.38 347.678 181.62C345.158 181.98 342.698 182.16 340.298 182.16Z" fill="black"/>
<path d="M278.48 181.8C268.16 181.56 260.84 179.34 256.52 175.14C252.2 170.94 250.04 164.4 250.04 155.52V43.1998L266.78 40.3198V152.82C266.78 155.58 267.02 157.86 267.5 159.66C267.98 161.46 268.76 162.9 269.84 163.98C270.92 165.06 272.36 165.9 274.16 166.5C275.96 166.98 278.18 167.4 280.82 167.76L278.48 181.8Z" fill="black"/>
<path fill-rule="evenodd" clip-rule="evenodd" d="M70.5284 37.2686C65.9936 50.3994 63.5002 65.1892 63.5002 72C63.5002 84.1426 71.459 92.5 82.0002 92.5C92.5413 92.5 100.5 84.1426 100.5 72C100.5 65.1892 98.0067 50.3994 93.4719 37.2686C91.216 30.7365 88.6525 25.2106 86.0288 21.4894C83.6834 18.1629 82.2712 17.6079 82.0002 17.5171C81.7291 17.6079 80.3169 18.1629 77.9715 21.4894C75.3479 25.2106 72.7844 30.7365 70.5284 37.2686ZM64.0776 11.6935C67.7469 6.48928 73.6528 0.5 82.0002 0.5C90.3475 0.5 96.2535 6.48928 99.9227 11.6935C103.863 17.2823 107.049 24.5034 109.541 31.7192C114.502 46.0843 117.5 62.7945 117.5 72C117.5 91.89 103.492 109.5 82.0002 109.5C60.5088 109.5 46.5002 91.89 46.5002 72C46.5002 62.7945 49.4986 46.0843 54.4597 31.7192C56.9518 24.5034 60.1372 17.2823 64.0776 11.6935ZM46.9403 138.221C47.5845 132.962 52.0502 129 57.358 129H111.461C116.772 129 121.24 132.967 121.88 138.23L140.2 288.881H483.005C488.807 288.881 493.5 293.586 493.5 299.378V518.002C493.5 523.794 488.807 528.499 483.005 528.499H10.9961C4.68635 528.499 -0.187196 522.976 0.578333 516.726L46.9403 138.221ZM142.267 305.881L167.271 511.499H476.5V305.881H142.267ZM150.146 511.499L105.7 146H63.1145L18.3456 511.499H150.146ZM332.181 343.151C332.074 337.246 336.86 332.406 342.776 332.464L413.524 333.147C419.212 333.202 423.813 337.776 423.916 343.454L425.287 419.096C425.394 425.012 420.59 429.856 414.663 429.783L343.915 428.904C338.238 428.833 333.655 424.264 333.552 418.598L332.181 343.151ZM349.3 349.527L350.434 411.983L408.168 412.701L407.034 350.085L349.3 349.527ZM190.385 344.569C190.328 338.738 195.038 333.97 200.88 333.97H273.735C279.413 333.97 284.054 338.483 284.226 344.148L286.359 414.383C286.539 420.297 281.795 425.199 275.868 425.199H201.567C195.805 425.199 191.128 420.556 191.072 414.805L190.385 344.569ZM207.448 350.97L208.008 408.199H269.163L267.425 350.97H207.448Z" fill="black"/>
</svg>
